<svg xmlns="http://www.w3.org/2000/svg" width="27.001" height="26.946" viewBox="0 0 27.001 26.946">
  <g id="Group_72" data-name="Group 72" transform="translate(706.89 156.656)">
    <path id="Path_1808" data-name="Path 1808" d="M-693.046-156.656a13.679,13.679,0,0,1,9.687,3.758,10.676,10.676,0,0,1,3.466,8.082,10.833,10.833,0,0,1-2.887,6.929,36.688,36.688,0,0,1-7.275,6.137c-.829.567-1.7,1.076-2.565,1.587a3.564,3.564,0,0,1-.924.381c-1.191.3-1.951-.389-1.792-1.612a12.5,12.5,0,0,1,.226-1.512c.132-.513-.164-.61-.531-.694-.869-.2-1.761-.326-2.6-.608a12.14,12.14,0,0,1-7.847-6.95,10.558,10.558,0,0,1,4.3-13.012A15.982,15.982,0,0,1-693.046-156.656Zm-.552,25.11c.241-.13.423-.219.6-.322a45.587,45.587,0,0,0,6.771-4.938,15.537,15.537,0,0,0,3.536-4.134,8.128,8.128,0,0,0,.912-5.917,9.791,9.791,0,0,0-4.944-6.465,13.224,13.224,0,0,0-8.8-1.442,12.224,12.224,0,0,0-6.9,3.268,8.56,8.56,0,0,0-2.524,8.317,9.415,9.415,0,0,0,4.318,5.979,12.957,12.957,0,0,0,5.252,1.947,2.051,2.051,0,0,1,1.928,2.635C-693.5-132.29-693.541-131.961-693.6-131.546Z" transform="translate(0 0)" fill="#5b4840"/>
    <path id="Path_1809" data-name="Path 1809" d="M-579.018-72.512c0,.714.007,1.428,0,2.142-.005.4-.153.767-.56.849a1.2,1.2,0,0,1-.825-.165.9.9,0,0,1-.295-.655c-.023-1.805-.015-3.611-.011-5.416a.809.809,0,0,1,.64-.841.776.776,0,0,1,.934.394c.543.88,1.07,1.769,1.7,2.642,0-.689-.006-1.379,0-2.068a.86.86,0,0,1,.574-.942.814.814,0,0,1,1.132.731c.024,1.853.018,3.707,0,5.56a.815.815,0,0,1-.683.816.823.823,0,0,1-.922-.449c-.526-.871-1.048-1.746-1.572-2.619Z" transform="translate(-114.062 -72.337)" fill="#5b4840"/>
    <path id="Path_1810" data-name="Path 1810" d="M-521.857-72.412v1.078c.415,0,.809-.011,1.2,0,.62.021.948.321.949.843s-.357.846-.988.848-1.279,0-1.919,0a.887.887,0,0,1-.984-.973q-.012-2.614,0-5.228a.9.9,0,0,1,.97-1c.671-.013,1.343-.014,2.014,0a.831.831,0,0,1,.906.843.841.841,0,0,1-.93.87c-.4.01-.793,0-1.216,0v1.054c.417,0,.842,0,1.267,0a.8.8,0,0,1,.878.8.787.787,0,0,1-.869.852C-520.987-72.4-521.4-72.412-521.857-72.412Z" transform="translate(-165.692 -72.144)" fill="#5b4840"/>
    <path id="Path_1811" data-name="Path 1811" d="M-647.8-71.218c.463,0,.861-.012,1.259,0,.593.022.957.367.94.866a.867.867,0,0,1-.978.825c-.656,0-1.312.005-1.968,0a.852.852,0,0,1-.949-.905q-.023-2.688,0-5.376a.864.864,0,0,1,.852-.915.884.884,0,0,1,.844.971C-647.8-74.266-647.8-72.781-647.8-71.218Z" transform="translate(-51.869 -72.259)" fill="#5b4840"/>
    <path id="Path_1812" data-name="Path 1812" d="M-603.746-73.135c0-.813.006-1.627,0-2.44-.007-.653.3-1.048.833-1.063s.879.369.882,1.025q.01,2.563,0,5.126a.949.949,0,0,1-.684,1.026c-.572.136-1.013-.266-1.031-.992-.022-.893-.005-1.788-.005-2.682Z" transform="translate(-93.23 -72.334)" fill="#5b4840"/>
  </g>
</svg>
